<svg width="512" height="512" viewBox="0 0 512 512" fill="none" xmlns="http://www.w3.org/2000/svg">
  <rect width="512" height="512" rx="24" fill="#F3F4F6"/>
  <path d="M256 160C202.981 160 160 202.981 160 256C160 309.019 202.981 352 256 352C309.019 352 352 309.019 352 256C352 202.981 309.019 160 256 160ZM256 320C220.654 320 192 291.346 192 256C192 220.654 220.654 192 256 192C291.346 192 320 220.654 320 256C320 291.346 291.346 320 256 320Z" fill="#9CA3AF"/>
  <path d="M256 128C264.837 128 272 120.837 272 112V80C272 71.1634 264.837 64 256 64C247.163 64 240 71.1634 240 80V112C240 120.837 247.163 128 256 128Z" fill="#9CA3AF"/>
  <path d="M256 384C247.163 384 240 391.163 240 400V432C240 440.837 247.163 448 256 448C264.837 448 272 440.837 272 432V400C272 391.163 264.837 384 256 384Z" fill="#9CA3AF"/>
  <path d="M112 240H80C71.1634 240 64 247.163 64 256C64 264.837 71.1634 272 80 272H112C120.837 272 128 264.837 128 256C128 247.163 120.837 240 112 240Z" fill="#9CA3AF"/>
  <path d="M432 240H400C391.163 240 384 247.163 384 256C384 264.837 391.163 272 400 272H432C440.837 272 448 264.837 448 256C448 247.163 440.837 240 432 240Z" fill="#9CA3AF"/>
  <path d="M154.059 154.059C147.811 160.307 137.674 160.307 131.426 154.059L108.8 131.433C102.552 125.185 102.552 115.048 108.8 108.8C115.048 102.552 125.185 102.552 131.433 108.8L154.059 131.426C160.307 137.674 160.307 147.811 154.059 154.059Z" fill="#9CA3AF"/>
  <path d="M403.2 403.2C396.952 409.448 386.815 409.448 380.567 403.2L357.941 380.574C351.693 374.326 351.693 364.189 357.941 357.941C364.189 351.693 374.326 351.693 380.574 357.941L403.2 380.567C409.448 386.815 409.448 396.952 403.2 403.2Z" fill="#9CA3AF"/>
  <path d="M154.059 357.941C160.307 364.189 160.307 374.326 154.059 380.574L131.433 403.2C125.185 409.448 115.048 409.448 108.8 403.2C102.552 396.952 102.552 386.815 108.8 380.567L131.426 357.941C137.674 351.693 147.811 351.693 154.059 357.941Z" fill="#9CA3AF"/>
  <path d="M403.2 108.8C409.448 115.048 409.448 125.185 403.2 131.433L380.574 154.059C374.326 160.307 364.189 160.307 357.941 154.059C351.693 147.811 351.693 137.674 357.941 131.426L380.567 108.8C386.815 102.552 396.952 102.552 403.2 108.8Z" fill="#9CA3AF"/>
</svg>
